<?xml version="1.0" standalone="no"?>
<!DOCTYPE svg PUBLIC "-//W3C//DTD SVG 20010904//EN"
 "http://www.w3.org/TR/2001/REC-SVG-20010904/DTD/svg10.dtd">
<svg version="1.0" xmlns="http://www.w3.org/2000/svg"
 width="300.000000pt" height="300.000000pt" viewBox="0 0 300.000000 300.000000"
 preserveAspectRatio="xMidYMid meet">
<metadata>
Created by potrace 1.10, written by Peter Selinger 2001-2011
</metadata>
<g transform="translate(0.000000,300.000000) scale(0.100000,-0.100000)"
fill="#000000" stroke="none">
<path d="M1587 2773 c-20 -43 -73 -154 -118 -248 -45 -93 -105 -219 -134 -280
-29 -60 -85 -177 -125 -260 -40 -82 -90 -187 -111 -232 -21 -46 -41 -83 -44
-83 -3 0 -41 18 -84 41 -124 65 -194 63 -272 -8 -63 -57 -79 -154 -39 -233 21
-41 47 -61 163 -124 48 -27 65 -41 59 -49 -5 -7 -82 -165 -172 -352 -89 -186
-178 -372 -198 -412 -19 -40 -33 -75 -31 -77 2 -2 25 -2 51 1 35 4 49 11 53
24 4 11 50 110 104 222 54 111 135 281 181 377 45 96 86 179 91 184 5 5 13 5
21 -1 7 -6 132 -76 278 -155 146 -80 432 -237 635 -348 204 -112 399 -219 435
-238 36 -20 90 -50 120 -68 30 -18 56 -31 57 -30 1 1 -108 221 -243 488 l-244
487 40 53 c62 81 83 147 84 253 0 68 -5 104 -20 145 -28 73 -485 1000 -494
1000 -3 0 -23 -35 -43 -77z m79 -64 c21 -41 17 -52 -11 -33 -24 16 -27 16 -49
-5 -35 -33 -38 -25 -9 34 29 59 40 60 69 4z m169 -455 c110 -223 205 -422 212
-442 28 -88 10 -216 -42 -294 l-27 -40 -30 58 c-16 33 -108 216 -205 408
l-175 349 -19 -43 c-10 -23 -19 -49 -19 -57 0 -8 84 -182 188 -386 103 -204
189 -374 190 -379 2 -5 -23 -21 -55 -36 -49 -23 -71 -27 -143 -27 -96 0 -103
3 -345 135 -71 39 -153 82 -181 97 l-52 26 38 81 c21 45 77 162 125 261 48 99
106 221 130 270 24 50 77 161 119 248 42 87 76 163 76 168 0 33 38 -36 215
-397z m-887 -627 c40 -21 71 -42 69 -46 -1 -3 -22 -46 -46 -96 -24 -49 -44
-91 -46 -93 -2 -2 -42 18 -89 43 -97 53 -122 84 -112 143 6 41 30 70 71 88 38
16 63 10 153 -39z m159 21 c-6 -25 14 -57 48 -77 19 -11 19 -12 -2 -6 -13 3
-32 7 -42 10 -12 4 -29 -4 -47 -20 -34 -31 -36 -31 -23 1 7 20 6 32 -6 50 -20
31 -19 34 9 34 13 0 29 7 36 15 18 22 33 18 27 -7z m214 -220 c253 -138 287
-150 395 -150 65 0 93 5 145 27 35 14 71 29 79 31 11 4 60 -86 192 -348 97
-194 175 -354 173 -356 -2 -2 -20 7 -42 21 -21 13 -78 45 -128 72 -49 26 -103
56 -120 65 -16 10 -57 32 -90 50 -33 18 -80 44 -104 57 -24 13 -218 119 -430
235 -212 116 -387 212 -389 213 -5 4 92 205 98 203 3 -2 103 -55 221 -120z
m732 85 c-4 -10 -19 -36 -35 -57 -30 -42 -34 -66 -18 -97 13 -23 -2 -26 -20
-4 -15 18 -71 20 -90 3 -8 -7 0 4 19 24 32 35 34 40 24 73 -12 37 -4 45 17 20
7 -8 20 -15 29 -15 20 1 55 29 64 53 3 9 9 17 11 17 3 0 2 -8 -1 -17z m-1079
-141 c-4 -21 1 -34 21 -56 l26 -28 -29 7 c-23 5 -36 0 -62 -22 -28 -23 -31
-24 -22 -6 13 24 4 60 -23 86 -15 16 -14 16 12 11 20 -4 36 0 53 15 32 26 31
26 24 -7z m1409 -775 c15 -34 27 -66 27 -70 0 -9 -106 48 -130 69 -12 12 -11
14 11 14 18 0 29 8 37 25 6 14 15 25 19 25 5 0 20 -29 36 -63z"/>
</g>
</svg>
